<svg id="图层_1" data-name="图层 1" xmlns="http://www.w3.org/2000/svg" viewBox="0 0 256 256"><defs><style>.cls-1{fill:#39c4bb;}</style></defs><title>(account)</title><path class="cls-1" d="M224.85,36.35c-38.16,0-64.53-12.39-92.37-31a8.07,8.07,0,0,0-9,0c-27.84,18.6-54.21,31-92.37,31a8.07,8.07,0,0,0-8.07,8.08v84.93A124.16,124.16,0,0,0,126.67,251.89a8.1,8.1,0,0,0,2.66,0A124.16,124.16,0,0,0,232.92,129.36V44.43A8.07,8.07,0,0,0,224.85,36.35Zm-8.07,93A107.64,107.64,0,0,1,128,235.71,107.64,107.64,0,0,1,39.22,129.36v-77c35.9-1.52,62.05-13.28,88.78-30.59C151.57,37,178.85,50.64,216.78,52.34Z"/><path class="cls-1" d="M57.46,128A71.29,71.29,0,0,0,78,178.12a6.52,6.52,0,0,0,.5.55,71.51,71.51,0,0,0,101,0,6.52,6.52,0,0,0,.5-.55A71.52,71.52,0,1,0,57.46,128ZM129,183.64A55.31,55.31,0,0,1,96.35,173a55.67,55.67,0,0,1,65.3,0A55.32,55.32,0,0,1,129,183.64Zm0-41.55A14.09,14.09,0,1,1,143.09,128,14.1,14.1,0,0,1,129,142.09Zm0-69.73a55.6,55.6,0,0,1,44.16,89.44A71.13,71.13,0,0,0,150.86,150a31,31,0,1,0-43.72,0,71.13,71.13,0,0,0-22.3,11.85A55.6,55.6,0,0,1,129,72.36Z"/></svg>