<svg id="图层_1" data-name="图层 1" xmlns="http://www.w3.org/2000/svg" viewBox="0 0 256 256"><defs><style>.cls-1{fill:#39c5bb;}</style></defs><title>(calendar-1-o)</title><path class="cls-1" d="M220.76,35.91A13.21,13.21,0,0,1,234,49.1V228.87a13.21,13.21,0,0,1-13.2,13.2H35.19A13.21,13.21,0,0,1,22,228.87V49.1A13.21,13.21,0,0,1,35.19,35.91H220.76m0-10H35.19A23.19,23.19,0,0,0,12,49.1V228.87a23.2,23.2,0,0,0,23.19,23.2H220.76a23.2,23.2,0,0,0,23.2-23.2V49.1a23.2,23.2,0,0,0-23.2-23.19Z"/><path class="cls-1" d="M11.76,95.76H244.24v11.07H11.76Z"/><path class="cls-1" d="M70,3.93h0a5.54,5.54,0,0,1,5.53,5.54V42.66A5.53,5.53,0,0,1,70,48.19h0a5.53,5.53,0,0,1-5.54-5.53V9.47A5.54,5.54,0,0,1,70,3.93Z"/><path class="cls-1" d="M186,3.93h0a5.54,5.54,0,0,1,5.53,5.54V42.66A5.53,5.53,0,0,1,186,48.19h0a5.53,5.53,0,0,1-5.54-5.53V9.47A5.54,5.54,0,0,1,186,3.93Z"/></svg>