<svg id="图层_1" data-name="图层 1" xmlns="http://www.w3.org/2000/svg" viewBox="0 0 256 256"><defs><style>.cls-1{fill:#39c5bb;fill-rule:evenodd;}</style></defs><title>(chanelmanage)</title><path class="cls-1" d="M58.86,137.87A27.59,27.59,0,0,1,86.51,110.2h83a27.54,27.54,0,0,1,27.65,27.67v51a27.58,27.58,0,0,1-27.65,27.66h-83a27.54,27.54,0,0,1-27.65-27.66ZM7,116.09A41.38,41.38,0,0,1,48.33,74.76H207.67A41.41,41.41,0,0,1,249,116.09v94.58A41.39,41.39,0,0,1,207.67,252H48.33A41.41,41.41,0,0,1,7,210.67Z"/><path class="cls-1" d="M147.57,148.29c9.86,6.32,9.89,16.55,0,22.89l-27.2,17.43c-9.86,6.32-17.86,1.88-17.86-10.17V141c0-11.93,8-16.5,17.86-10.16Z"/><path class="cls-1" d="M48,29.6A17.81,17.81,0,0,1,58.34,6.89,17.12,17.12,0,0,1,80.49,17.48l17.74,50A17.81,17.81,0,0,1,87.9,90.17,17.13,17.13,0,0,1,65.75,79.58Z"/><path class="cls-1" d="M174.85,7.75a16.94,16.94,0,0,1,24.22,3.09,18.08,18.08,0,0,1-2.94,24.85l-81.8,65.54a16.93,16.93,0,0,1-24.22-3.09,18.08,18.08,0,0,1,2.94-24.85Z"/></svg>