<svg id="图层_1" data-name="图层 1" xmlns="http://www.w3.org/2000/svg" viewBox="0 0 256 256"><defs><style>.cls-1{fill:#39c5bb;}</style></defs><title>(circulation)</title><path class="cls-1" d="M245,118.1c-5.4,0-9,3.6-9,9v24.3a55.5,55.5,0,0,1-55.8,55.8H40.7l11.7-10.8c1.8-1.8,3.6-4.5,3.6-7.2a10,10,0,0,0-9.9-9.9c-2.7,0-6.3.9-8.1,2.7L7.4,209.9c-4.5,3.6-3.6,9.9,0,13.5l30.6,27a13.4,13.4,0,0,0,8.1,3.6,10.69,10.69,0,0,0,10.8-9,9.45,9.45,0,0,0-4.5-8.1L38.9,224.3H179.3c41.4,0,74.7-33.3,74.7-72.9V127.1c0-5.4-3.6-9-9-9ZM11,140.6c5.4,0,9-3.6,9-9V106.4A57.66,57.66,0,0,1,75.8,48.8H215.3L203.6,59.6c-1.8,1.8-3.6,4.5-3.6,7.2a10,10,0,0,0,9.9,9.9c2.7,0,6.3-.9,8.1-2.7l29.7-27.9c4.5-3.6,3.6-9.9,0-13.5l-30.6-27A13.4,13.4,0,0,0,209,2a10.69,10.69,0,0,0-10.8,9,9.45,9.45,0,0,0,4.5,8.1l13.5,12.6H76.7C35.3,31.7,2,65,2,107.3v24.3c0,5.4,3.6,9,9,9Zm0,0"/><path class="cls-1" d="M137,173V83H123.5L101,99.2l4.5,11.7,17.1-11.7V173Zm0,0"/></svg>