<svg id="图层_1" data-name="图层 1" xmlns="http://www.w3.org/2000/svg" viewBox="0 0 256 256"><defs><style>.cls-1{fill:#39c5bb;}</style></defs><title>(course-o)</title><path class="cls-1" d="M96.14,16.22A26.87,26.87,0,0,1,123,43.05V222.7c-.75-.87-1.46-1.65-2.14-2.35-6.23-6.49-15.17-9.78-26.55-9.78H28.55A14.56,14.56,0,0,1,14,196V30.77A14.57,14.57,0,0,1,28.55,16.22H96.14m0-10H28.55A24.55,24.55,0,0,0,4,30.77V196a24.55,24.55,0,0,0,24.55,24.55H94.28q12.9,0,19.34,6.71a113.61,113.61,0,0,1,10.13,12.95,5.06,5.06,0,0,0,4.14,2.15h0a5.07,5.07,0,0,0,5.07-5V43.05A36.83,36.83,0,0,0,96.14,6.22Z"/><path class="cls-1" d="M227.45,16.22A14.57,14.57,0,0,1,242,30.77V196a14.56,14.56,0,0,1-14.55,14.55H161.72c-11.38,0-20.32,3.29-26.54,9.77-.68.7-1.4,1.49-2.15,2.36V43.05a26.87,26.87,0,0,1,26.83-26.83h67.59m0-10H159.86A36.83,36.83,0,0,0,123,43.05V237.33a5.07,5.07,0,0,0,5.07,5h0a5.06,5.06,0,0,0,4.14-2.15,113.61,113.61,0,0,1,10.13-12.95q6.44-6.71,19.34-6.71h65.73A24.55,24.55,0,0,0,252,196V30.77A24.55,24.55,0,0,0,227.45,6.22Z"/><path class="cls-1" d="M128,249.78c8.13,0,14.73-4.11,14.73-9.19a6.69,6.69,0,0,0-1.92-4.52c-2.53-2.78-7.7,2.07-13.19,2.07-6.19,0-11.11-4.34-13.29-1a6.27,6.27,0,0,0-1.06,3.42C113.27,245.67,119.86,249.78,128,249.78Z"/><ellipse class="cls-1" cx="128" cy="240.93" rx="14.57" ry="8.85"/></svg>