<svg id="图层_1" data-name="图层 1" xmlns="http://www.w3.org/2000/svg" viewBox="0 0 256 256"><defs><style>.cls-1{fill:#39c5bb;fill-rule:evenodd;}</style></defs><title>(closeeyes)</title><path class="cls-1" d="M182.86,71.57l-25,35.77a42.14,42.14,0,0,1,11.51,29c0,23.17-18.5,42-41.33,42a40.72,40.72,0,0,1-17.23-3.81l-22.3,31.84A146.52,146.52,0,0,0,128,211.91c68.48,0,124-50.35,124-75.52C252,118.46,223.83,87.75,182.86,71.57Z"/><path class="cls-1" d="M92.15,157.28a42.19,42.19,0,0,1-5.48-20.89c0-23.17,18.5-41.95,41.33-41.95a41.08,41.08,0,0,1,7.65.71L157.5,64A144.67,144.67,0,0,0,128,60.87c-68.48,0-124,50.35-124,75.52C4,153,28.09,180.48,64.11,197.32Z"/><path class="cls-1" d="M195.38,31.77a8.3,8.3,0,0,0-11.57,2.11L58.64,212.64a8.27,8.27,0,1,0,13.55,9.48L197.36,43.36A8.29,8.29,0,0,0,195.38,31.77Z"/></svg>