<svg id="图层_1" data-name="图层 1" xmlns="http://www.w3.org/2000/svg" viewBox="0 0 256 256"><defs><style>.cls-1{fill:#39c5bb;}</style></defs><title>(double)</title><path class="cls-1" d="M84.24,135.29a51.06,51.06,0,1,0-51.06-51A51.11,51.11,0,0,0,84.24,135.29Z"/><path class="cls-1" d="M141.06,162.87c-1.47-7.28-8.57-13-16.17-13H29c-7.59,0-14.7,5.71-16.17,13L4.31,204.94c-1.4,6.9,2,15.62,7.79,19.84C13.62,225.9,49.54,252,76.94,252s63.32-26.1,64.84-27.22c5.77-4.22,9.19-12.94,7.79-19.84Z"/><path class="cls-1" d="M193.65,91.53a43.77,43.77,0,1,0-43.77-43.76A43.81,43.81,0,0,0,193.65,91.53Z"/><path class="cls-1" d="M251.73,153.15l-7.15-35.62a14.73,14.73,0,0,0-14.12-11.41H149.85a14.57,14.57,0,0,0-14,11.41l-.59,3.63v.33c0,.46,0,4.54,5,7.14,8.18,4.29,13.62,11.19,15.17,18.91l6.95,34.63.1.39a9.74,9.74,0,0,0,5.7,6.2c8.28,3.24,15.67,4.89,22,4.89,23.2,0,53.54-22.21,54.82-23.16C250,166.8,252.94,159.18,251.73,153.15Z"/></svg>