<svg id="图层_1" data-name="图层 1" xmlns="http://www.w3.org/2000/svg" viewBox="0 0 256 256"><defs><style>.cls-1{fill:#39c5bb;}</style></defs><title>(microphone)</title><path class="cls-1" d="M127.88,193.39c-35.78,0-65.06-28.89-65.06-64.22v-61C62.82,32.91,92.1,4,127.88,4S193,32.9,193,68.21v61c0,35.33-29.27,64.22-65.07,64.22Z"/><path class="cls-1" d="M227.62,123.77a93.77,93.77,0,0,1-6.5,40.1,99.22,99.22,0,0,1-21.48,32.93A100.9,100.9,0,0,1,167,219.21a96.49,96.49,0,0,1-24.22,6.86v11.06a14.89,14.89,0,0,1-29.77,0V226.66l0-.84a104.57,104.57,0,0,1-25.33-7.18,98.22,98.22,0,0,1-32.29-22.06A95.52,95.52,0,0,1,34.88,164.5a103.74,103.74,0,0,1-6.83-40.24,9.69,9.69,0,0,1,19.37.45,85,85,0,0,0,5.55,33,76.19,76.19,0,0,0,16.47,25.7,78.88,78.88,0,0,0,26,17.73,86.59,86.59,0,0,0,33.83,6.84c20.77,0,41.29-8.85,56.49-24.38a80.6,80.6,0,0,0,17.35-26.63,75,75,0,0,0,5.21-32.09,9.69,9.69,0,0,1,19.35-1.06Z"/></svg>