<svg id="图层_1" data-name="图层 1" xmlns="http://www.w3.org/2000/svg" viewBox="0 0 256 256"><defs><style>.cls-1{fill:#39c5bb;}</style></defs><title>(distribution-2)</title><path class="cls-1" d="M227.49,191.48l-1.65-.33-.52-1.61a97.28,97.28,0,0,0-23-38.55,96.31,96.31,0,0,0-31.47-21.06,113,113,0,0,0-35.11-8.47l-2.69-.19V92.74c0-.21,0-.44,0-.65l-.36-2.73,2.71-.48a42.66,42.66,0,1,0-15-.06l2.67.49-.32,2.7a4.71,4.71,0,0,0-.06.74v28.52l-2.69.19a113.24,113.24,0,0,0-35.25,8.48,94.11,94.11,0,0,0-54.47,59.7l-.52,1.57-1.61.36A30.54,30.54,0,1,0,65,221.45a30.4,30.4,0,0,0-21.41-29.17l-2.93-.91,1.08-2.87c8.55-22.76,24.19-39.13,46.49-48.71A104.57,104.57,0,0,1,119.51,132l3.13-.26v59.53l-2.19.56a30.47,30.47,0,1,0,14.8,0l-2.18-.55V131.71l3.13.27a103.46,103.46,0,0,1,30.64,7.6c22.64,9.53,38.48,26,47.09,49l1.06,2.83-2.87.94a30.45,30.45,0,1,0,15.37-.91Zm-173,30a20,20,0,1,1-20-20.09A20.08,20.08,0,0,1,54.52,221.45ZM95.81,46.77A32.22,32.22,0,1,1,128,79.06,32.29,32.29,0,0,1,95.81,46.77Zm52.1,174.68a20,20,0,1,1-20-20.09A20.08,20.08,0,0,1,147.91,221.45Zm73.61,20.08a20.09,20.09,0,1,1,20-20.08A20.08,20.08,0,0,1,221.52,241.53Z"/></svg>