<svg id="图层_1" data-name="图层 1" xmlns="http://www.w3.org/2000/svg" viewBox="0 0 256 256"><defs><style>.cls-1{fill:#39c5bb;fill-rule:evenodd;}</style></defs><title>(pack)</title><path class="cls-1" d="M178.41,74.49c-6.64,12.85-20.78,28.16-50.42,28.16S84.21,87.34,77.57,74.49a65.69,65.69,0,0,1-7-27.4,7.56,7.56,0,0,1,15.12,0A51.89,51.89,0,0,0,91.3,68.35C98.24,81.41,110.58,88,128,88c41.86,0,42.34-39.27,42.34-40.94a7.56,7.56,0,0,1,15.12,0A65.69,65.69,0,0,1,178.41,74.49Zm73.36,148.24L217.6,30.25a7.5,7.5,0,0,0-7.45-6.07H43.82a7.5,7.5,0,0,0-7.47,6.15L4.1,223.34a7.14,7.14,0,0,0,1.7,5.91,7.68,7.68,0,0,0,5.76,2.57H244.43a7.44,7.44,0,0,0,7.57-7.31A7,7,0,0,0,251.77,222.73Z"/></svg>