<svg id="图层_1" data-name="图层 1" xmlns="http://www.w3.org/2000/svg" viewBox="0 0 256 256"><defs><style>.cls-1{fill:#39c5bb;fill-rule:evenodd;}</style></defs><title>(padlock)</title><path class="cls-1" d="M140.8,187.21l4.46,27.89a4.78,4.78,0,0,1-1.35,4.11,6.11,6.11,0,0,1-4.37,1.79H116.46a6.06,6.06,0,0,1-4.36-1.78,4.77,4.77,0,0,1-1.36-4.11l4.46-27.89c-9.65-4.32-16.06-13.24-16.06-23.05,0-14.24,12.94-25.84,28.86-25.84s28.86,11.6,28.86,25.84C156.86,174,150.45,182.9,140.8,187.21Zm56.45-79.88H87.6V71.17C87.6,51.22,105.72,35,128,35s40.4,16.22,40.4,36.17V91.83c0,2.86,2.58,5.17,5.77,5.17h23.08c3.19,0,5.78-2.31,5.78-5.17V71.17C203,34.13,169.37,4,128,4S53,34.13,53,71.17v36.69c-13.15,2.4-23.08,12.84-23.08,25.31v93c0,14.24,12.94,25.83,28.86,25.83h138.5c15.92,0,28.86-11.59,28.86-25.83v-93C226.11,118.93,213.17,107.33,197.25,107.33Z"/></svg>