<svg id="图层_1" data-name="图层 1" xmlns="http://www.w3.org/2000/svg" viewBox="0 0 256 256"><defs><style>.cls-1{fill:#39c4bb;}</style></defs><title>(percentage)</title><circle class="cls-1" cx="93.56" cy="105.96" r="13.78"/><circle class="cls-1" cx="162.44" cy="148.67" r="13.78"/><path class="cls-1" d="M161.58,174a25,25,0,1,1,25.52-25A25.25,25.25,0,0,1,161.58,174Zm-62.34-2.59a6.33,6.33,0,0,1-8.76.82,6,6,0,0,1-.83-8.59l66.95-79a6.34,6.34,0,0,1,8.77-.82,6,6,0,0,1,.83,8.59ZM68.8,106.94a25.52,25.52,0,1,1,25.52,25C80.21,131.94,68.8,120.71,68.8,106.94Zm180,34.76L245,136.56a15.9,15.9,0,0,1-.16-18.85l3.73-5.18A16,16,0,0,0,242.85,89l-5.71-3A16,16,0,0,1,228.69,69l1.09-6.25A16.23,16.23,0,0,0,214.22,44l-6.48-.25a16.49,16.49,0,0,1-15.15-11.64L190.78,26a16.52,16.52,0,0,0-22.35-10.32l-6,2.49a16.66,16.66,0,0,1-18.77-4.07l-4.31-4.72a16.65,16.65,0,0,0-24.68.2l-4.26,4.78a16.72,16.72,0,0,1-18.72,4.32l-6-2.44A16.59,16.59,0,0,0,63.51,26.9L61.8,33.05A16.32,16.32,0,0,1,46.86,44.89l-6.48.35A16.22,16.22,0,0,0,25.13,64.3l1.19,6.25a16,16,0,0,1-8.19,17l-5.65,3.1A15.94,15.94,0,0,0,7.19,114.3L11,119.44a15.9,15.9,0,0,1,.16,18.85l-3.73,5.18a16,16,0,0,0,5.7,23.58l5.71,3A16,16,0,0,1,27.31,187l-1.09,6.25A16.23,16.23,0,0,0,41.78,212l6.48.25a16.49,16.49,0,0,1,15.15,11.64L65.22,230a16.52,16.52,0,0,0,22.35,10.32l6-2.49a16.66,16.66,0,0,1,18.77,4.07l4.31,4.72a16.65,16.65,0,0,0,24.68-.2l4.26-4.78a16.72,16.72,0,0,1,18.72-4.32l6,2.44a16.59,16.59,0,0,0,22.2-10.67L194.2,223a16.32,16.32,0,0,1,14.94-11.84l6.48-.35a16.22,16.22,0,0,0,15.25-19.06l-1.19-6.25a16,16,0,0,1,8.19-17l5.65-3.1A15.92,15.92,0,0,0,248.81,141.7Z"/></svg>