<svg id="图层_1" data-name="图层 1" xmlns="http://www.w3.org/2000/svg" viewBox="0 0 256 256"><defs><style>.cls-1{fill:#39c5bb;fill-rule:evenodd;}</style></defs><title>(packup)</title><path class="cls-1" d="M94,101.57l42.67-42.31a6.8,6.8,0,0,1,9.87,0l15.17,14.81a8.3,8.3,0,0,1,0,10.22L119,126.61l42.67,42.31a8.31,8.31,0,0,1,0,10.23L146.5,194a6.8,6.8,0,0,1-9.87,0L94,151.65,73.14,130.52a5.48,5.48,0,0,1,0-7.82ZM128,252a121.48,121.48,0,0,0,48.29-9.69,123.49,123.49,0,0,0,66-66A121.48,121.48,0,0,0,252,128a121.48,121.48,0,0,0-9.69-48.29,123.49,123.49,0,0,0-66-66A121.48,121.48,0,0,0,128,4a121.48,121.48,0,0,0-48.29,9.69,123.49,123.49,0,0,0-66,66A121.48,121.48,0,0,0,4,128a121.48,121.48,0,0,0,9.69,48.29,123.49,123.49,0,0,0,66,66A121.48,121.48,0,0,0,128,252Z"/></svg>