<svg id="图层_1" data-name="图层 1" xmlns="http://www.w3.org/2000/svg" viewBox="0 0 256 256"><defs><style>.cls-1{fill:#39c5bb;}</style></defs><title>(record)</title><path class="cls-1" d="M121.57,255.25a10.6,10.6,0,0,1-10.45-12.36l3.87-23a10.52,10.52,0,0,1,2.94-5.73l85-85.05a24.2,24.2,0,0,1,34.26,0,24.4,24.4,0,0,1,0,34.36l-85,85a10.54,10.54,0,0,1-5.82,3l-23.17,3.67A10.16,10.16,0,0,1,121.57,255.25Zm5.18-33L123.28,243,144,239.67,228.7,155a12.38,12.38,0,0,0,0-17.42,12.22,12.22,0,0,0-17.26,0Zm17,17.72h0Z"/><path class="cls-1" d="M81,254.92H44.74c-18.2,0-33-15.17-33-33.82V34.57c0-18.65,14.79-33.82,33-33.82H189.21c18.19,0,33,15.17,33,33.82V91.09a6,6,0,0,1-12,0V34.57c0-12-9.41-21.82-21-21.82H44.74c-11.58,0-21,9.79-21,21.82V221.1c0,12,9.41,21.82,21,21.82H81a6,6,0,0,1,0,12Z"/><path class="cls-1" d="M170.93,61.69H63a6,6,0,0,1,0-12H170.93a6,6,0,0,1,0,12Z"/><path class="cls-1" d="M153.43,123H63a6,6,0,1,1,0-12h90.41a6,6,0,0,1,0,12Z"/><path class="cls-1" d="M99.53,172H63a6,6,0,0,1,0-12H99.53a6,6,0,1,1,0,12Z"/></svg>