<svg id="图层_1" data-name="图层 1" xmlns="http://www.w3.org/2000/svg" viewBox="0 0 256 256"><defs><style>.cls-1{fill:#39c5bb;}</style></defs><title>(teaching)</title><path class="cls-1" d="M230.2,4H127.52a21.83,21.83,0,0,0-21.8,21.8V75.38L99.33,69a21.66,21.66,0,0,0-15.41-6.38h-.15a30.12,30.12,0,0,0,19.43-28C103.2,18,89.72,4,72.89,4S42.58,18,42.58,34.56A30.11,30.11,0,0,0,62,62.61H40.33A36.37,36.37,0,0,0,4,98.94v43.59a21.83,21.83,0,0,0,21.8,21.8,21.59,21.59,0,0,0,7.26-1.25V230.2a21.79,21.79,0,0,0,36.33,16.24,21.79,21.79,0,0,0,36.33-16.24V134a21.88,21.88,0,0,0,17-1.06l24.47-12.24h83A21.82,21.82,0,0,0,252,98.94V25.8A21.83,21.83,0,0,0,230.2,4ZM72.89,19C81.1,19,88,26.14,88,34.56a15.16,15.16,0,0,1-30.31,0C57.73,26.14,64.67,19,72.89,19Zm72.41,86.41L116.24,120a7.24,7.24,0,0,1-8.39-1.36l-4.26-4.25a7.27,7.27,0,0,0-12.4,5.11V230.2a7.27,7.27,0,1,1-14.53,0V157.06a7.27,7.27,0,0,0-14.54,0V230.2a7.27,7.27,0,1,1-14.53,0V98.94a7.27,7.27,0,1,0-14.53,0v43.59a7.27,7.27,0,1,1-14.53,0V98.94a21.83,21.83,0,0,1,21.8-21.8H83.92a7.23,7.23,0,0,1,5.14,2.13l21.65,21.65a7.27,7.27,0,0,0,8.39,1.37l19.7-9.85a7.27,7.27,0,0,1,6.5,13Zm92.17-6.5a7.27,7.27,0,0,1-7.27,7.26H162.59c0-.12.1-.24.14-.37a21.8,21.8,0,0,0,1-9.59l39.73-19.87a7.26,7.26,0,1,0-6.5-13L157.19,83.24a21.77,21.77,0,0,0-24.89-3.8l-12.05,6V25.8a7.28,7.28,0,0,1,7.27-7.27H230.2a7.28,7.28,0,0,1,7.27,7.27Z"/></svg>