<svg id="图层_1" data-name="图层 1" xmlns="http://www.w3.org/2000/svg" viewBox="0 0 256 256"><defs><style>.cls-1{fill:#39c5bb;}</style></defs><title>(shopping)</title><path class="cls-1" d="M211.11,192.83H75.41a9.25,9.25,0,0,1-9-7.24L42.84,79.67,10.8,69a9.25,9.25,0,0,1,5.85-17.55l37,12.34a9.23,9.23,0,0,1,6.11,6.77L82.83,174.33H211.11a9.25,9.25,0,0,1,0,18.5Z"/><path class="cls-1" d="M188.9,230.46a24.68,24.68,0,1,1,24.67-24.68A24.7,24.7,0,0,1,188.9,230.46Zm0-37a12.34,12.34,0,1,0,12.34,12.33A12.34,12.34,0,0,0,188.9,193.45Z"/><path class="cls-1" d="M102.55,230.46a24.68,24.68,0,1,1,24.67-24.68A24.7,24.7,0,0,1,102.55,230.46Zm0-37a12.34,12.34,0,1,0,12.33,12.33A12.35,12.35,0,0,0,102.55,193.45Z"/><path class="cls-1" d="M214.78,158.91H107.84a18.51,18.51,0,0,1-18.18-15.07L73.34,57.48A18.5,18.5,0,0,1,88.09,35.87a18.06,18.06,0,0,1,3.44-.33H234a18.53,18.53,0,0,1,18.5,18.51,18.11,18.11,0,0,1-.44,4l-19.19,86.36A18.39,18.39,0,0,1,214.78,158.91Z"/></svg>