<svg id="图层_1" data-name="图层 1" xmlns="http://www.w3.org/2000/svg" viewBox="0 0 256 256"><defs><style>.cls-1{fill:#3ac5ba;}</style></defs><title>(share)</title><path class="cls-1" d="M249.48,127,173.8,70.6c-3.35-2.45-6-1.11-6,3l0,26.26a9.63,9.63,0,0,1-7.37,9s-9.24,2.41-17.77,5.26c-50.73,16.77-56.35,64.39-56.35,64.39-1.65,3.74-.33,4.74,2.88,2.19,0,0,14.56-11.5,27.53-16.7,17.14-6.92,43.53-7,43.53-7a7.46,7.46,0,0,1,7.5,7.43l0,28.06c0,4.12,2.66,5.4,5.92,2.84l76-59.17C252.84,133.6,252.79,129.5,249.48,127ZM134.93,177.72c7.56-2.33,16.94-3.58,24.31-4.15v47.5c0,11.07-9.56,20-21.28,20H25.27c-11.75,0-21.27-9-21.27-20V44.93c0-11,9.52-20,21.27-20H138c11.72,0,21.28,9,21.28,20V94.71c-3.62,1-8.57,2.47-13.35,4.05-2.27.77-4.48,1.58-6.6,2.43-1.52.62-2.89,1.32-4.36,2V67.37c0-8.68-6.54-15.71-14.59-15.71H42.91c-8.09,0-14.61,7-14.61,15.71V198.63c0,8.68,6.53,15.71,14.61,15.71h77.43c8.06,0,14.59-7,14.59-15.71Z"/></svg>