<svg id="图层_1" data-name="图层 1" xmlns="http://www.w3.org/2000/svg" viewBox="0 0 256 256"><defs><style>.cls-1{fill:#39c5bb;}</style></defs><title>(type)</title><rect class="cls-1" x="4.2" y="4.75" width="116.43" height="116.43" rx="12.91" ry="12.91" transform="translate(-0.28 0.28) rotate(-0.25)"/><path class="cls-1" d="M212,44V96H160V44h52m13-25H147a12,12,0,0,0-12,12v78a12,12,0,0,0,12,12h78a12,12,0,0,0,12-12V31a12,12,0,0,0-12-12Z"/><path class="cls-1" d="M213,160v52H161V160h52m13-25H148a12,12,0,0,0-12,12v78a12,12,0,0,0,12,12h78a12,12,0,0,0,12-12V147a12,12,0,0,0-12-12Z"/><path class="cls-1" d="M96,161v52H44V161H96m13-25H31a12,12,0,0,0-12,12v78a12,12,0,0,0,12,12h78a12,12,0,0,0,12-12V148a12,12,0,0,0-12-12Z"/></svg>