<svg id="图层_1" data-name="图层 1" xmlns="http://www.w3.org/2000/svg" viewBox="0 0 256 256"><defs><style>.cls-1{fill:#39c5bb;}</style></defs><title>(warn)</title><path class="cls-1" d="M128,4A124,124,0,1,1,4,128,124,124,0,0,1,128,4Zm0,13.77A110.23,110.23,0,1,0,238.22,128,110.23,110.23,0,0,0,128,17.77Zm0,34.43a13,13,0,0,1,12.94,13c0,.27,0,.54,0,.8l-5.6,89.6a7.34,7.34,0,0,1-14.64,0L115.08,66A13,13,0,0,1,127.2,52.23Zm0,124a13.67,13.67,0,0,1,13.75,13.58l-.05.42a13.76,13.76,0,0,1-27.51,0l0-.42A13.67,13.67,0,0,1,128,176.21Z"/></svg>