<svg id="图层_1" data-name="图层 1" xmlns="http://www.w3.org/2000/svg" viewBox="0 0 256 256"><defs><style>.cls-1{fill:#39c5bb;}</style></defs><title>(target)</title><path class="cls-1" d="M113.41,252A109.47,109.47,0,0,0,210,91.18a20.67,20.67,0,0,1-2.71.18c-.51,0-1,0-1.58-.06l-13.92-1.07-10,10a80.56,80.56,0,1,1-26.05-26l9.06-9.07-1.22-16a20.19,20.19,0,0,1,.05-3.81A109.42,109.42,0,1,0,113.41,252Z"/><path class="cls-1" d="M112,113.44c.78,0,1.55,0,2.33.08l21.88-21.88.47-.47a58.42,58.42,0,1,0,28.2,28.22l-.47.47-21.89,21.88c.06.77.08,1.55.08,2.32A30.62,30.62,0,1,1,112,113.44Z"/><path class="cls-1" d="M232.09,39.85l6.42-6.39a7.39,7.39,0,0,0,0-10.53l-4.45-4.45a7.48,7.48,0,0,0-10.58,0l-7.36,7.31L214.61,6.31a2.54,2.54,0,0,0-4.31-1.58l-29,28.78a12.54,12.54,0,0,0-3.67,9.86l.08,1.13,1.39,18L168.67,72.93,149.82,91.65l-.43.43-18.24,18.13-8.1,8a6.19,6.19,0,0,0-1.82,4l-.5,6.31a6.29,6.29,0,0,0,6.3,6.78h.33l6.7-.32a6.26,6.26,0,0,0,4.15-1.84l8-8L164.47,107l.43-.43,18.84-18.73,11.39-11.31,16.54,1.26.73,0c.33,0,.66,0,1,0a12.73,12.73,0,0,0,8.95-3.67l28.94-28.75a2.51,2.51,0,0,0-1.59-4.28Z"/></svg>