<svg id="图层_1" data-name="图层 1" xmlns="http://www.w3.org/2000/svg" viewBox="0 0 256 256"><defs><style>.cls-1{fill:#39c5bb;}</style></defs><title>(audio)</title><path class="cls-1" d="M128,4A124,124,0,1,0,252,128,124,124,0,0,0,128,4Zm35,80.5c-12.86,8.76-30.41-.63-30.41-.63s16.77,78.63,15.7,84.73c0-.22.15-.92.15,0,0,18.55-15.73,34.4-34.65,34.4s-34.21-15.8-34.21-34.36A34.67,34.67,0,0,1,114,134.25c6.73,0,14.39,2.67,18.14,6.76l-17-62.85s-7-28.91,17.49-24.71c17.28,3,12.64,15,43.35,5.06C177,58.2,177.79,74.41,163,84.5Z"/></svg>