<svg id="图层_1" data-name="图层 1" xmlns="http://www.w3.org/2000/svg" viewBox="0 0 256 256"><defs><style>.cls-1{fill:#3ac5ba;fill-rule:evenodd;}</style></defs><title>(classmanage)</title><path class="cls-1" d="M4,135a20.67,20.67,0,1,1,41.33,0v82.49a20.67,20.67,0,1,1-41.33,0Z"/><path class="cls-1" d="M210.67,135A20.67,20.67,0,1,1,252,135v82.49a20.67,20.67,0,1,1-41.33,0Z"/><path class="cls-1" d="M72.89,38.52a20.67,20.67,0,1,1,41.33,0v179a20.67,20.67,0,1,1-41.33,0Z"/><path class="cls-1" d="M141.78,93.49a20.67,20.67,0,0,1,41.33,0V217.62a20.67,20.67,0,0,1-41.33,0Z"/></svg>