<svg id="图层_1" data-name="图层 1" xmlns="http://www.w3.org/2000/svg" viewBox="0 0 256 256"><defs><style>.cls-1{fill:#39c5bb;}.cls-1,.cls-2{fill-rule:evenodd;}.cls-2{fill:#3ac5ba;}</style></defs><title>(classpreview)</title><path class="cls-1" d="M199.63,4a4.78,4.78,0,0,1,4.68,4.77,4.7,4.7,0,0,1-4.68,4.77H46.83a4.78,4.78,0,0,1-4.68-4.77A4.7,4.7,0,0,1,46.83,4Z"/><path class="cls-2" d="M128,156.62a9.57,9.57,0,0,1,9.54,9.49v76.4a9.54,9.54,0,0,1-19.08,0v-76.4A9.5,9.5,0,0,1,128,156.62Z"/><path class="cls-1" d="M111.72,164.92a9.52,9.52,0,0,1,0,13.46L51,239.14A9.54,9.54,0,0,1,37.5,225.65l60.76-60.76A9.49,9.49,0,0,1,111.72,164.92Z"/><path class="cls-1" d="M216.64,239.11a9.52,9.52,0,0,0,0-13.46l-60.76-60.76a9.54,9.54,0,0,0-13.49,13.49l60.76,60.76A9.49,9.49,0,0,0,216.64,239.11Z"/><path class="cls-1" d="M213.93,23.08H42.07a19,19,0,0,0-19,19V175.74a19,19,0,0,0,19,19H213.93a19,19,0,0,0,19-19V42.11A19,19,0,0,0,213.93,23.08Zm-22,64-47.69,47.69a9.53,9.53,0,0,1-13.49,0l-22.57-22.58L67.19,145a9.54,9.54,0,0,1-11.92-14.9L103,91.94a9.54,9.54,0,0,1,12.71.7l21.87,21.87L162.2,89.85H147.08a9.54,9.54,0,0,1,0-19.08h38.15A9.54,9.54,0,0,1,192,87.05Z"/></svg>