<svg id="图层_1" data-name="图层 1" xmlns="http://www.w3.org/2000/svg" viewBox="0 0 256 256"><defs><style>.cls-1{fill:#39c5bb;}</style></defs><title>(course)</title><path class="cls-1" d="M29.55,6.22H96.46a36.45,36.45,0,0,1,36.46,36.45V235a5,5,0,0,1-9.13,2.88,113.32,113.32,0,0,0-10-12.83q-6.39-6.63-19.15-6.63H29.55a24.3,24.3,0,0,1-24.3-24.3V30.52A24.3,24.3,0,0,1,29.55,6.22Z"/><path class="cls-1" d="M226.45,6.22H159.54a36.45,36.45,0,0,0-36.46,36.45V235a5,5,0,0,0,9.13,2.88,113.32,113.32,0,0,1,10-12.83q6.39-6.63,19.15-6.63h65.07a24.3,24.3,0,0,0,24.3-24.3V30.52A24.3,24.3,0,0,0,226.45,6.22Z"/><path class="cls-1" d="M128,249.78c8.13,0,14.73-4.11,14.73-9.19a6.69,6.69,0,0,0-1.92-4.52c-2.53-2.78-7.7,2.07-13.19,2.07-6.19,0-11.11-4.34-13.29-1a6.27,6.27,0,0,0-1.06,3.42C113.27,245.67,119.86,249.78,128,249.78Z"/><ellipse class="cls-1" cx="128" cy="240.93" rx="14.57" ry="8.85"/><rect class="cls-1" x="123.05" y="6" width="9.9" height="235" rx="4.95" ry="4.95"/></svg>