<svg id="图层_1" data-name="图层 1" xmlns="http://www.w3.org/2000/svg" viewBox="0 0 256 256"><defs><style>.cls-1{fill:#39c5bb;fill-rule:evenodd;}</style></defs><title>(daily)</title><path class="cls-1" d="M122.07,163.33c0,3.24,2.7,5.14,7.39,5.14A16.61,16.61,0,0,0,139.64,165a9.05,9.05,0,0,0,3.25-6.94v-2.52c-8,.18-11.9.63-15.59,1.8C124.05,158.46,122.07,160.72,122.07,163.33Z"/><path class="cls-1" d="M66.78,136.83c-7.84,0-12.8,5.86-12.8,15.32,0,5.14,1.44,9.29,4.15,11.9a12.48,12.48,0,0,0,8.74,3.43c8,0,13.88-6.67,13.88-15.6C80.75,143.14,75,136.83,66.78,136.83Z"/><path class="cls-1" d="M218.18,4H37.82A33.86,33.86,0,0,0,4,37.82V218.18A33.86,33.86,0,0,0,37.82,252H218.18A33.87,33.87,0,0,0,252,218.18V37.82A33.86,33.86,0,0,0,218.18,4Zm-35.7,26.3a9.57,9.57,0,1,1-9.56,9.57A9.57,9.57,0,0,1,182.48,30.3ZM128,30.3a9.57,9.57,0,1,1-9.57,9.57A9.58,9.58,0,0,1,128,30.3Zm-54.48,0A9.57,9.57,0,1,1,64,39.87,9.57,9.57,0,0,1,73.52,30.3ZM98.68,179.64H80.93v-2.88a16.7,16.7,0,0,1,.09-2c-6,4.86-10.63,6.49-18.21,6.49-16.4,0-26.32-11-26.32-29.21,0-9.37,2.71-16.85,7.76-22,4.59-4.59,10.9-7,18.29-7s12.53,1.89,18.48,6.67c-.09-1.35-.09-2.17-.09-3.43V118.8a100.27,100.27,0,0,0-.72-14.15H98.68A101.32,101.32,0,0,0,98,118.8v46.7A107,107,0,0,0,98.68,179.64Zm44.21,0V175.5c-5,3.87-10.1,5.41-17.49,5.41-6.85,0-12-1.62-15.59-5a16.26,16.26,0,0,1-5-12.26c0-5.68,2.26-10.19,6.58-13.16,4.6-3.24,10.64-5.14,18.75-5.86,3.52-.36,6.22-.45,12.71-.63V142c0-4.33-2.62-6.32-8.56-6.32-5.77,0-8.84,1.9-10.19,6.32l-17.21-2.8c1.8-5.31,3.78-8.2,7.57-10.91,4.87-3.42,11.53-5.13,20.28-5.13,6.67,0,13.16,1.26,16.67,3.15,5.77,3.16,8.29,8.12,8.29,16.23v24.34a104.43,104.43,0,0,0,.63,12.79Zm78.78-42.9L201,184.42c-3.61,8.47-10.1,12.35-20.37,12.35a53.77,53.77,0,0,1-12.35-1.54l2-14.32c3,1.52,4.69,2,7,2a7.65,7.65,0,0,0,7.29-4.24l1.9-3.87-16.86-38c-3.87-9-4.23-9.83-5.41-12.08h19.56a60.28,60.28,0,0,0,3.52,11.63l8.29,20.82,8-20.46c2.53-6.22,3.34-8.83,3.88-12h19.56C224.82,129.35,224.82,129.35,221.67,136.74Z"/></svg>