<svg id="图层_1" data-name="图层 1" xmlns="http://www.w3.org/2000/svg" viewBox="0 0 256 256"><defs><style>.cls-1{fill:#39c5bb;}</style></defs><title>(distribution-3)</title><path class="cls-1" d="M250.38,71A26.85,26.85,0,0,0,237.22,54.9c-12.6-6.7-38.36-15.63-69.6-.34a193.73,193.73,0,0,0-21.18,11.83A13.8,13.8,0,0,1,135,68.24a14.69,14.69,0,0,1-9.32-7.87c-7.34-15.35-18.42-26.07-33-31.76C63.11,17.06,38.14,15.44,22.32,24.09c-9.15,5-15.2,13.39-17.4,24.33C1,67.45,9.66,82.13,28,87.77a26.81,26.81,0,0,0,8.47,1.17c25.14-.61,56.44,4.19,62.26,19.7l.28.73.34.5c.39.78,7.29,13.84,6.55,55.19-.17,8.6-.34,16.19-.45,22.89-.85,42.13-.9,43.81,2.83,46.82,3.39,2.73,11,7,19.43,7A22.53,22.53,0,0,0,144,234.94c5-3.24,7.74-12.89,8.36-29.3.85-23,.06-70.94,0-72.94l.17-.23-.23-.67c0-.61.23-2.68,2.72-5.41,4.91-5.42,19.94-14.62,65.08-15.57A26.17,26.17,0,0,0,226,110c6-1.51,16.94-5.58,22.59-15.46C252.42,87.88,253,80,250.38,71ZM237.84,88.19c-3.46,6-11.45,8.62-14.74,9.46A14.17,14.17,0,0,1,220,98c-39.44.84-64.83,7.89-75.43,21-5.16,6.38-5.16,12.09-4.93,14.27,0,4.48.79,50.38,0,72.09-.46,12.48-2.1,17.41-2.89,19l-1.31,1.4c-5.95,6.5-14.17,2.58-17.57.45-.34-4.76-.11-18.41.34-37.89.17-6.72.29-14.39.46-23,.79-42.54-6.18-58.15-8.22-61.79C99.72,76.71,50.8,75.76,36,76.1a14.62,14.62,0,0,1-4.48-.62c-12.13-3.69-17-12-14.4-24.74C18.56,43.35,22.18,38.2,28.14,35c12.35-6.72,34.11-4.82,59.79,5.2,11.56,4.54,20.4,13.1,26.3,25.47a27.45,27.45,0,0,0,17.45,14.66,26.51,26.51,0,0,0,21.88-3.52,170.52,170.52,0,0,1,19.78-11c26.24-12.82,47.72-5.43,58.21.17a14.42,14.42,0,0,1,7,8.45C240.16,80,239.93,84.49,237.84,88.19Z"/></svg>