<svg id="图层_1" data-name="图层 1" xmlns="http://www.w3.org/2000/svg" viewBox="0 0 256 256"><defs><style>.cls-1{fill:#39c5bb;fill-rule:evenodd;}</style></defs><title>(edittxt)</title><path class="cls-1" d="M92.18,191.56l74.89-75.08a6.48,6.48,0,0,0,0-9.23L148.4,88.62a6.58,6.58,0,0,0-9.22,0L64.3,163.73l-9.7,29.4c-2.23,6.78,1.39,10.47,8.22,8.2ZM208.54,74.91a19.7,19.7,0,0,0-27.89-27.82l-15.93,16a6.42,6.42,0,0,0,.06,9.15l18.68,18.64a6.47,6.47,0,0,0,9.15,0ZM251.93,69A65.16,65.16,0,0,0,186.68,3.93L69,4.07A65.16,65.16,0,0,0,3.93,69.32L4.07,187a65.16,65.16,0,0,0,65.25,65.07L187,251.93a65.16,65.16,0,0,0,65.07-65.25Z"/></svg>