<svg id="图层_1" data-name="图层 1" xmlns="http://www.w3.org/2000/svg" viewBox="0 0 256 256"><defs><style>.cls-1{fill:#39c5bb;}</style></defs><title>(money)</title><path class="cls-1" d="M252,136.6c-.77-13.62-25.1-19.73-49.24-19.73A123.39,123.39,0,0,0,179,119V39.89a4.87,4.87,0,0,0,0-.66c-.77-13.62-25.1-19.73-49.24-19.73S81.26,25.61,80.49,39.23c0,.22,0,.44,0,.66V93.53a117.27,117.27,0,0,0-27.17-2.94C29.14,90.59,4.81,96.7,4,110.32A4.87,4.87,0,0,0,4,111V216.11c0,14.08,24.75,20.39,49.28,20.39s49.28-6.31,49.28-20.39V215A117.83,117.83,0,0,0,129.73,218a123.39,123.39,0,0,0,23.71-2.17v.31c0,14.08,24.75,20.39,49.28,20.39S252,230.19,252,216.11V137.26A4.87,4.87,0,0,0,252,136.6Zm-49.24,35A103.77,103.77,0,0,1,179,169.17c-6.17-1.47-10.23-3.31-12.19-4.76a4.69,4.69,0,0,1-1.19-1.17v-11.8A64.55,64.55,0,0,0,179,155.49a123.39,123.39,0,0,0,23.71,2.17c13.77,0,27.6-2,37.09-6.22v11.8C238.23,165.83,225.85,171.63,202.72,171.63Zm37.09,6.09v11.81c-1.58,2.58-14,8.39-37.09,8.39A103.69,103.69,0,0,1,179,195.45c-6.17-1.46-10.23-3.31-12.19-4.75a4.86,4.86,0,0,1-1.19-1.17V177.72A64.55,64.55,0,0,0,179,181.77a123.39,123.39,0,0,0,23.71,2.17C216.49,183.94,230.32,182,239.81,177.72ZM179,131.64a103.69,103.69,0,0,1,23.71-2.47c22.27,0,34.58,5.39,36.87,8.09-2.29,2.71-14.6,8.09-36.87,8.09A103.77,103.77,0,0,1,179,142.89c-6.16-1.46-10.23-3.31-12.19-4.75a5.83,5.83,0,0,1-1-.88,6.27,6.27,0,0,1,1-.87C168.78,134.94,172.85,133.1,179,131.64ZM129.73,31.8c22.27,0,34.58,5.38,36.87,8.09C164.31,42.6,152,48,129.73,48S95.15,42.6,92.86,39.89C95.15,37.18,107.46,31.8,129.73,31.8ZM92.64,54.06c9.49,4.24,23.32,6.22,37.09,6.22s27.6-2,37.09-6.22V65.87c-1.58,2.59-14,8.39-37.09,8.39s-35.51-5.8-37.09-8.39ZM53.28,102.89c11.91,0,21,1.54,27.17,3.39,5.4,1.6,8.64,3.44,9.7,4.7-1.06,1.26-4.3,3.1-9.7,4.7-6.2,1.85-15.26,3.39-27.17,3.39-22.27,0-34.58-5.38-36.87-8.09C18.7,108.27,31,102.89,53.28,102.89ZM90.37,210.65v5.16c-1.58,2.58-14,8.39-37.09,8.39s-35.51-5.81-37.09-8.39V204c9.49,4.23,23.32,6.22,37.09,6.22,11,0,22.12-1.28,31-4A53.19,53.19,0,0,0,90.37,204Zm0-21.12c-.76,1.25-4.08,3.26-9.92,5-6.2,1.84-15.26,3.39-27.17,3.39-23.13,0-35.51-5.81-37.09-8.39V177.72c9.49,4.23,23.32,6.22,37.09,6.22A117.27,117.27,0,0,0,80.45,181a58.56,58.56,0,0,0,9.92-3.28Zm0-26.29c-.76,1.26-4.08,3.27-9.92,5-6.2,1.84-15.26,3.38-27.17,3.38-23.13,0-35.51-5.8-37.09-8.39v-11.8c9.49,4.23,23.32,6.22,37.09,6.22a117.27,117.27,0,0,0,27.17-2.94,58.56,58.56,0,0,0,9.92-3.28Zm0-26.28c-.76,1.26-4.08,3.27-9.92,5-6.2,1.84-15.26,3.38-27.17,3.38-23.13,0-35.51-5.8-37.09-8.39V125.15c9.49,4.24,23.32,6.22,37.09,6.22a117.83,117.83,0,0,0,27.17-2.93,57.68,57.68,0,0,0,9.92-3.29Zm2.27-44.81V80.35c9.49,4.23,23.32,6.22,37.09,6.22s27.6-2,37.09-6.22v11.8c-1.58,2.59-14,8.39-37.09,8.39S94.22,94.74,92.64,92.15Zm60.8,111a103.69,103.69,0,0,1-23.71,2.47c-11.91,0-21-1.54-27.17-3.39V188.76a117.83,117.83,0,0,0,27.17,2.93,123.39,123.39,0,0,0,23.71-2.17Zm0-26.28a103.69,103.69,0,0,1-23.71,2.47c-11.91,0-21-1.54-27.17-3.39V162.48a117.83,117.83,0,0,0,27.17,2.93,123.39,123.39,0,0,0,23.71-2.17Zm0-39.66v13.38a103.69,103.69,0,0,1-23.71,2.47c-11.91,0-21-1.54-27.17-3.39V136.2a117.83,117.83,0,0,0,27.17,2.93A122.79,122.79,0,0,0,153.46,137C153.45,137.06,153.44,137.16,153.44,137.26Zm-23.71-10.43c-11.91,0-21-1.55-27.17-3.39V111c0-.22,0-.44,0-.66s0-.28,0-.43a117.42,117.42,0,0,0,27.26,3c13.77,0,27.6-2,37.09-6.22v11.81C165.24,121,152.86,126.83,129.73,126.83Zm110.08,89h0c-1.58,2.58-14,8.39-37.09,8.39s-35.51-5.81-37.09-8.39V204a57,57,0,0,0,8.8,3,116,116,0,0,0,28.29,3.22c13.77,0,27.6-2,37.09-6.22Z"/></svg>