<svg id="图层_1" data-name="图层 1" xmlns="http://www.w3.org/2000/svg" viewBox="0 0 256 256"><defs><style>.cls-1,.cls-2{fill:#39c5bb;}.cls-1{stroke:#39c5bb;stroke-width:6px;}</style></defs><title>(open-record)</title><path id="Rectangle-4" class="cls-1" d="M103.2,41.57H230.63A6.37,6.37,0,0,1,237,47.94h0a6.37,6.37,0,0,1-6.37,6.37H103.2a6.37,6.37,0,0,1-6.37-6.37h0A6.37,6.37,0,0,1,103.2,41.57Z"/><path id="Rectangle-4-2" data-name="Rectangle-4" class="cls-1" d="M103.2,118.57H230.63a6.37,6.37,0,0,1,6.37,6.37h0a6.37,6.37,0,0,1-6.37,6.37H103.2a6.37,6.37,0,0,1-6.37-6.37h0A6.37,6.37,0,0,1,103.2,118.57Z"/><path id="Rectangle-4-3" data-name="Rectangle-4" class="cls-1" d="M103.2,195.57H230.63a6.37,6.37,0,0,1,6.37,6.37h0a6.37,6.37,0,0,1-6.37,6.37H103.2a6.37,6.37,0,0,1-6.37-6.37h0A6.37,6.37,0,0,1,103.2,195.57Z"/><g id="Oval-Copy"><path class="cls-2" d="M45.49,103.89a21.06,21.06,0,1,1-21.06,21,21,21,0,0,1,21.06-21m0-7a28.06,28.06,0,1,0,28.05,28.05,28.09,28.09,0,0,0-28.05-28Z"/></g><g id="Oval-Copy-2" data-name="Oval-Copy"><path class="cls-2" d="M45.49,180.89a21.06,21.06,0,1,1-21.06,21.05,21,21,0,0,1,21.06-21.05m0-7a28.06,28.06,0,1,0,28.05,28.05,28.09,28.09,0,0,0-28.05-28.05Z"/></g><g id="Oval-Copy-3" data-name="Oval-Copy"><path class="cls-2" d="M45.49,26.89a21.06,21.06,0,1,1-21.06,21,21,21,0,0,1,21.06-21m0-7A28.06,28.06,0,1,0,73.54,47.94a28.09,28.09,0,0,0-28.05-28Z"/></g></svg>