<svg id="图层_1" data-name="图层 1" xmlns="http://www.w3.org/2000/svg" viewBox="0 0 256 256"><defs><style>.cls-1{fill:#39c5bb;}</style></defs><title>(people-options)</title><path class="cls-1" d="M158.05,231.72l-5.86,3.2a8.89,8.89,0,0,1-9.82-1.4l-8.88-8.85a8.6,8.6,0,0,1-1.52-9.76l3.12-6a57.62,57.62,0,0,1-5.35-12.12l-5.37-1.86c-2.75-.8-6.88-3.88-6.88-7.89l-.13-12.51c0-4,4.19-7.1,7-7.92l6.11-1.9a58.1,58.1,0,0,1,5-12l-3.28-6a8.62,8.62,0,0,1,1.41-9.78l8.84-8.79a8.73,8.73,0,0,1,9.83-1.3l5.86,3.35c.76-.41,1.55-.81,2.37-1.19a98.77,98.77,0,0,0-36.43-15.55,55.13,55.13,0,1,0-40.37,0A100,100,0,0,0,4.09,211.17c0,11.7,8.2,15.58,14.79,18.69l.38.16c26.6,9.38,65.06,11.89,83.59,11.89a355.51,355.51,0,0,0,63.52-6.43,57.58,57.58,0,0,1-8.32-3.76Zm0,0"/><path class="cls-1" d="M186.5,144.6a36.64,36.64,0,1,0,36.64,36.64A36.68,36.68,0,0,0,186.5,144.6ZM186,194.89A13.87,13.87,0,1,1,199.84,181,13.86,13.86,0,0,1,186,194.89Zm0,0"/><path class="cls-1" d="M251.42,174.21c0-2.17-1-4.15-3.06-4.76l-8.64-2.17a54.43,54.43,0,0,0-6-15.22l3.91-6.8a5.61,5.61,0,0,0-.81-6.28l-8.79-8.84a5.54,5.54,0,0,0-3.84-1.48,5.09,5.09,0,0,0-2.42.58l-6.92,3.8a55,55,0,0,0-15-6.12l-2.25-6.22c-.62-2.09-2.83-4.09-5-4.09l-12.55.2A5.72,5.72,0,0,0,175,120.7l-2.32,7.14a54.39,54.39,0,0,0-14.57,5.77l-7.31-4.19a5.62,5.62,0,0,0-6.28.81l-8.83,8.8a5.59,5.59,0,0,0-.91,6.25l4.08,7.44a55.17,55.17,0,0,0-5.92,14.34l-7.68,2.39c-2.09.61-4.92,2.89-4.92,5.07l.12,12.51c0,2.17,2.71,4.46,4.79,5.07l6.94,2.4a56.27,56.27,0,0,0,6.29,14.34l-3.89,7.45a5.66,5.66,0,0,0,1,6.28l8.89,8.84a5.55,5.55,0,0,0,3.86,1.48,5.14,5.14,0,0,0,2.44-.58l7.32-4a55.18,55.18,0,0,0,14.58,6.14l2.31,7.39c.61,2.09,2.72,5.11,4.9,5.11h12.78c2.18,0,4.36-3,5-5.12l2.26-6.47a55.78,55.78,0,0,0,15-6.48l7,3.61a4.78,4.78,0,0,0,2.31.55,5.72,5.72,0,0,0,4-1.55l8.83-8.88a5.67,5.67,0,0,0,.91-6.3l-3.73-6.83a54.82,54.82,0,0,0,6.34-15.22l7.9-2.17c2.09-.61,3.25-2.9,3.25-5.07ZM186.5,219.87a38.62,38.62,0,1,1,38.62-38.62,38.66,38.66,0,0,1-38.62,38.62Zm0,0"/></svg>