<svg id="图层_1" data-name="图层 1" xmlns="http://www.w3.org/2000/svg" viewBox="0 0 256 256"><defs><style>.cls-1{fill:#39c5bb;}</style></defs><title>(person-o)</title><path class="cls-1" d="M126.63,14.6a53.33,53.33,0,1,1,0,106.65h-.08a53.33,53.33,0,0,1,.08-106.65m0-10.82a64.15,64.15,0,0,0-.08,128.3h.1a64.15,64.15,0,0,0,0-128.3Z"/><path class="cls-1" d="M150.79,127.35c21.36,5.74,41.29,19.13,56.44,38,15.91,19.8,24.68,43.27,24.68,66.11,0,1.46,0,4.88-1.14,7.29-.48,1-1.15,2.45-5.36,2.45H30.59c-4.21,0-4.88-1.42-5.36-2.45-1.14-2.41-1.14-5.83-1.14-7.29,0-45.39,35.22-91.16,79.18-103.78a64.2,64.2,0,0,0,23.28,4.42h.08a63.46,63.46,0,0,0,24.16-4.73m-1-11.4a53.19,53.19,0,0,1-23.17,5.3h-.08a53.12,53.12,0,0,1-22.46-5c-51,12.51-90.82,64.21-90.82,115.19,0,4.32,0,20.56,17.32,20.56H225.41c17.32,0,17.32-16.24,17.32-20.56,0-52.25-41.19-103.63-92.93-115.49Z"/></svg>