<svg id="图层_1" data-name="图层 1" xmlns="http://www.w3.org/2000/svg" viewBox="0 0 256 256"><defs><style>.cls-1{fill:#39c5bb;fill-rule:evenodd;}</style></defs><title>(pic)</title><path class="cls-1" d="M119.14,101.42A26.57,26.57,0,1,1,92.58,74.86,26.56,26.56,0,0,1,119.14,101.42ZM184,116.3s-2.83-5.53-12.76-5.53c-11.26,0-14.65,5.36-14.65,5.36L114,185.51a9.14,9.14,0,0,1-8,4.65,10.69,10.69,0,0,1-8.79-4.65l-22.41-27s-5.74-8-13.2-8S48,159.35,48,159.35L30.57,181.14V65.93A17.62,17.62,0,0,1,48.21,48.29H207.79a17.57,17.57,0,0,1,17.64,17.76V172.29ZM39.53,21.71A35.59,35.59,0,0,0,4,57.29V198.71a35.54,35.54,0,0,0,35.53,35.58H216.47A35.59,35.59,0,0,0,252,198.71V57.29a35.54,35.54,0,0,0-35.53-35.58Z"/></svg>