<svg id="图层_1" data-name="图层 1" xmlns="http://www.w3.org/2000/svg" viewBox="0 0 256 256"><defs><style>.cls-1{fill:#39c5bb;}</style></defs><title>(points)</title><path class="cls-1" d="M105.41,1C57.71,1,7,17.2,7,47.21V183.45c0,30,50.69,46.21,98.38,46.21V212.41c-50.09,0-80.85-16.87-80.85-29v-41c18.95,12.5,50.48,19.1,80.85,19.1V144.3c-50.09,0-80.85-16.87-80.85-29v-41C43.48,86.86,75,93.42,105.38,93.42s61.89-6.56,80.85-19.09v22.8h17.56V47.21C203.79,17.2,153.1,1,105.41,1Zm0,75.18c-50.09,0-80.85-16.88-80.85-29s30.78-29,80.85-29,80.85,16.88,80.85,29S155.47,76.18,105.38,76.18Z"/><path class="cls-1" d="M184,102.88c-43.57,0-66.35,16.5-66.35,32.79v87.55c0,16.29,22.81,32.78,66.35,32.78,43.24,0,66-16.26,66.35-32.43h0v-87.9C250.38,119.38,227.6,102.88,184,102.88Zm48.82,120.34c0,4.64-16.61,15.53-48.82,15.53s-48.81-10.89-48.81-15.53v-20.9c11.11,6,27.46,9.92,48.81,9.92s37.67-4,48.82-9.92Zm0-43.79c0,4.64-16.61,15.53-48.82,15.53s-48.81-10.89-48.81-15.53v-20.9c11.11,5.95,27.46,9.92,48.81,9.92s37.67-4,48.82-9.92ZM184,151.19c-32.2,0-48.81-10.89-48.81-15.53s16.61-15.53,48.81-15.53,48.82,10.89,48.82,15.53S216.24,151.19,184,151.19Z"/></svg>