<svg id="图层_1" data-name="图层 1" xmlns="http://www.w3.org/2000/svg" viewBox="0 0 256 256"><defs><style>.cls-1{fill:#39c5bb;}</style></defs><title>(ppt)</title><path class="cls-1" d="M146.1,204.2H109.9L87.45,243.09a9.81,9.81,0,0,1-17-9.81L87.24,204.2H47.06a27,27,0,0,1-27-27V27.62c-7.5,0-13-8.42-7.67-16.32A7.53,7.53,0,0,1,18.65,8H235.91c7.71,0,13.34,8.88,7.21,17a7.13,7.13,0,0,1-5.72,2.65h-1.49V174.77a29.43,29.43,0,0,1-29.42,29.43H168.76l17.41,30.15a7.59,7.59,0,0,1,.55,6.82c-4,9-14.35,8.52-18.16,1.92ZM39.71,27.62V177.23a7.35,7.35,0,0,0,7.35,7.35H206.48a9.81,9.81,0,0,0,9.81-9.8h0V27.62ZM69.14,57.05h91a7.9,7.9,0,0,1,6.61,3.5c5.14,7.85-.37,16.12-7.8,16.13h-91a7.9,7.9,0,0,1-6.61-3.5c-5.14-7.85.37-16.13,7.81-16.13Zm0,39.24H159a9.81,9.81,0,0,1,0,19.62H69.14a9.81,9.81,0,0,1-.38-19.62Zm0,39.24H128c7.71,0,13.34,8.88,7.21,17a7.1,7.1,0,0,1-5.71,2.65H69.14c-7.71,0-13.35-8.88-7.22-17a7.15,7.15,0,0,1,5.72-2.65Z"/></svg>