<svg id="图层_1" data-name="图层 1" xmlns="http://www.w3.org/2000/svg" viewBox="0 0 256 256"><defs><style>.cls-1{fill:#39c4bb;}</style></defs><title>(praise)</title><path class="cls-1" d="M56.55,244.66a4.25,4.25,0,0,1-.82-.07l-.37-.06h-44l-.34.05a5.29,5.29,0,0,1-1,.08,6.28,6.28,0,0,1-6.28-6.27l.09-126.18a6.28,6.28,0,0,1,6.28-6.27,7.18,7.18,0,0,1,.8.06l.25,0,43.8-.1v-.59a66.72,66.72,0,0,0,58.46-64.79v-.28l0-.28a22,22,0,0,1-.12-2.33,26.36,26.36,0,0,1,26.33-26.32c12.47,0,23.65,8,29.93,21.26,2.85,6,4.49,14.43,4.49,23,0,12.88-1.69,23.74-5.32,34.16l-2,5.62,58,0a5.2,5.2,0,0,1,.81.07l.29.06h.3a27,27,0,0,1,21.93,12.7,26.24,26.24,0,0,1,4,16.09l0,.33,0,.32a6.18,6.18,0,0,1-.19,2.1L229.18,227.47a5.74,5.74,0,0,1-.85,1.82l-.19.26-.14.29a26.48,26.48,0,0,1-9.53,10.58,27.06,27.06,0,0,1-13.24,4.17l-1.19,0-146.3,0-.38.06A4.21,4.21,0,0,1,56.55,244.66ZM139.67,23.28a14.4,14.4,0,0,0-14.39,14.38,10.93,10.93,0,0,0,.06,1.15,15.94,15.94,0,0,1,.08,2.08A79,79,0,0,1,69.54,114.4l-3,.91V232.58l137.49,0h.87l.25,0a15,15,0,0,0,6.9-2.28,14.5,14.5,0,0,0,5.28-5.89c.07-.14.14-.26.21-.39l.28-.52L240.17,125v-.46c0-.34,0-.69,0-1a14.32,14.32,0,0,0-2.12-8.75l-.1-.17a15.11,15.11,0,0,0-12.28-7.06c-.4,0-.81,0-1.22-.1l-.24,0-51.49-.05a16.18,16.18,0,0,1-15.27-21.5c3.17-9.12,4.65-18.72,4.65-30.23,0-6.76-1.25-13.45-3.34-17.89a28.13,28.13,0,0,0-8.75-11A17.62,17.62,0,0,0,139.67,23.28ZM15.84,118l-.09,114.61H54.59V117.87Z"/></svg>