<svg id="图层_1" data-name="图层 1" xmlns="http://www.w3.org/2000/svg" viewBox="0 0 256 256"><defs><style>.cls-1,.cls-2{fill:#39c5bb;}.cls-1{fill-rule:evenodd;}</style></defs><title>(subchannel)</title><path class="cls-1" d="M68.7,4H187.3a10.79,10.79,0,0,1,10.79,10.78V36.35A10.79,10.79,0,0,1,187.3,47.13H68.7A10.79,10.79,0,0,1,57.91,36.35V14.78A10.79,10.79,0,0,1,68.7,4Z"/><path class="cls-2" d="M68.7,4H187.3a10.79,10.79,0,0,1,10.79,10.78V36.35A10.79,10.79,0,0,1,187.3,47.13H68.7A10.79,10.79,0,0,1,57.91,36.35V14.78A10.79,10.79,0,0,1,68.7,4Z"/><path class="cls-1" d="M213.4,14.78h-5V39.66c0,11.92-9,21.57-20.09,21.57H67.71c-11.09,0-20.09-9.65-20.09-21.57V14.78h-5c-11.1,0-20.1,9.66-20.1,21.57V230.43c0,11.91,9,21.57,20.1,21.57H213.4c11.1,0,20.1-9.66,20.1-21.57V36.35C233.5,24.44,224.5,14.78,213.4,14.78ZM165.47,173.31l-41.71,51.14a4.79,4.79,0,0,1-7.09.5c-.12-.11-.24-.24-.35-.36L94.07,199.17a5.15,5.15,0,0,1,.2-6.92,4.33,4.33,0,0,1,5-.9l18,8.67a4.74,4.74,0,0,0,5.23-.74l37.07-32.51a4.06,4.06,0,0,1,6,.65A4.82,4.82,0,0,1,165.47,173.31Zm0-75.48L123.76,149a4.78,4.78,0,0,1-7.09.5,4,4,0,0,1-.35-.36L94.07,123.7a5.17,5.17,0,0,1,.2-6.93,4.33,4.33,0,0,1,5-.9l18,8.67a4.74,4.74,0,0,0,5.23-.74l37.07-32.51a4.06,4.06,0,0,1,6,.65A4.82,4.82,0,0,1,165.47,97.83Z"/></svg>