<svg id="图层_1" data-name="图层 1" xmlns="http://www.w3.org/2000/svg" viewBox="0 0 256 256"><defs><style>.cls-1,.cls-2{fill:#39c5bb;}.cls-2{fill-rule:evenodd;}</style></defs><title>(subchannel-o)</title><path class="cls-1" d="M214,19.18H198.86V29.31H214a10.12,10.12,0,0,1,10.12,10.12V231.76A10.12,10.12,0,0,1,214,241.88H42a10.12,10.12,0,0,1-10.12-10.12V39.43A10.12,10.12,0,0,1,42,29.31H57.14V19.18H42A20.25,20.25,0,0,0,21.71,39.43V231.76A20.25,20.25,0,0,0,42,252H214a20.25,20.25,0,0,0,20.25-20.24V39.43A20.25,20.25,0,0,0,214,19.18Z"/><path class="cls-1" d="M183.76,54.41l-111.34.4A15.2,15.2,0,0,1,57.18,39.68l-.07-20.24A15.19,15.19,0,0,1,72.24,4.2l111.34-.4a15.2,15.2,0,0,1,15.24,15.13l.07,20.25A15.19,15.19,0,0,1,183.76,54.41ZM72.27,14.32a5.07,5.07,0,0,0-5,5.08l.07,20.24a5.07,5.07,0,0,0,5.08,5l111.35-.4a5.07,5.07,0,0,0,5-5.08L188.7,19a5.07,5.07,0,0,0-5.08-5Z"/><path class="cls-2" d="M97.36,114.08l18.14,8.15a5.09,5.09,0,0,0,5.28-.7L158.12,91a4.29,4.29,0,0,1,5.94,6.14l-42,48a5.06,5.06,0,0,1-7.14.47c-.12-.11-.24-.22-.35-.34L92.13,121.43a4.6,4.6,0,0,1,5.23-7.35Z"/><path class="cls-2" d="M97.36,184.94l18.14,8.14a5,5,0,0,0,5.28-.7l37.34-30.51a4.29,4.29,0,0,1,5.94,6.14l-42,48a5.05,5.05,0,0,1-7.14.48l-.35-.35L92.13,192.29a4.6,4.6,0,0,1,5.23-7.35Z"/></svg>