<svg id="图层_1" data-name="图层 1" xmlns="http://www.w3.org/2000/svg" viewBox="0 0 256 256"><defs><style>.cls-1,.cls-2{fill:#39c5bb;}.cls-1{fill-rule:evenodd;}</style></defs><title>(subscribe)</title><path class="cls-1" d="M128,4A124,124,0,1,0,252,128,124,124,0,0,0,128,4Zm50.13,168.88a10.52,10.52,0,0,1-10.54,10.52H88.41a10.56,10.56,0,0,1-10.54-10.52V83.12A10.52,10.52,0,0,1,88.41,72.6h79.18a10.56,10.56,0,0,1,10.54,10.52Z"/><circle class="cls-2" cx="101.62" cy="101.62" r="7.91"/><path class="cls-1" d="M93.7,125.36A5.26,5.26,0,0,1,99,120.09h47.53a5.28,5.28,0,0,1,0,10.55H99A5.25,5.25,0,0,1,93.7,125.36Z"/><path class="cls-1" d="M93.7,141.19A5.27,5.27,0,0,1,99,135.91h15.83a5.28,5.28,0,0,1,0,10.56H99A5.26,5.26,0,0,1,93.7,141.19Z"/><path class="cls-1" d="M93.7,157A5.28,5.28,0,0,1,99,151.74h37a5.28,5.28,0,0,1,0,10.56H99A5.26,5.26,0,0,1,93.7,157Z"/></svg>