<svg id="图层_1" data-name="图层 1" xmlns="http://www.w3.org/2000/svg" viewBox="0 0 256 256"><defs><style>.cls-1{fill:#39c5bb;fill-rule:evenodd;}</style></defs><title>(web)</title><path class="cls-1" d="M234.21,132.46a17.77,17.77,0,0,1-17.71,17.85h-177a17.78,17.78,0,0,1-17.71-17.85V52.15A17.78,17.78,0,0,1,39.48,34.3h177a17.78,17.78,0,0,1,17.71,17.85v80.31Zm0-116H21.79A17.77,17.77,0,0,0,4.08,34.32V186a17.77,17.77,0,0,0,17.71,17.85H103.5A123.62,123.62,0,0,0,79.32,221.7c-7.34,0-13.28,4-13.28,8.91s5.94,8.92,13.28,8.92H185.53c7.33,0,13.28-4,13.28-8.92s-5.95-8.91-13.28-8.91a120.45,120.45,0,0,0-23.61-17.85h72.29A17.77,17.77,0,0,0,251.92,186V34.32A17.77,17.77,0,0,0,234.21,16.47Z"/></svg>