<svg id="图层_1" data-name="图层 1" xmlns="http://www.w3.org/2000/svg" viewBox="0 0 256 256"><defs><style>.cls-1{fill:#39c5bb;fill-rule:evenodd;}</style></defs><title>(write)</title><path class="cls-1" d="M94.49,153.24,77.77,163.43a3.44,3.44,0,0,1-5.42-3.13l.46-19.58a15,15,0,0,1,2-7L147.14,8.52c2.23-3.87,6.71-5.46,10-3.56l12.76,7.37c3.29,1.9,4.15,6.57,1.92,10.44L99.54,148A14.93,14.93,0,0,1,94.49,153.24Z"/><path class="cls-1" d="M223,10.94H191.81a2.62,2.62,0,0,0-2.26,1.31l-83.69,145a17.65,17.65,0,0,1-8.16,7.33l-20.29,9a9.1,9.1,0,0,1-12.73-7.34l-2.37-22.06a17.65,17.65,0,0,1,2.26-10.73L133,14.86a2.62,2.62,0,0,0-2.27-3.92H33a17.89,17.89,0,0,0-17.89,17.9V234A17.89,17.89,0,0,0,33,251.84H223A17.89,17.89,0,0,0,240.92,234V28.84A17.89,17.89,0,0,0,223,10.94ZM208.3,213.4a5.82,5.82,0,0,1-5.82,5.82H58.54a5.81,5.81,0,0,1-5.82-5.82V201.2a5.82,5.82,0,0,1,5.82-5.82H202.48a5.83,5.83,0,0,1,5.82,5.82Z"/></svg>